<?xml version="1.0" encoding="UTF-8" standalone="no"?><!DOCTYPE svg PUBLIC "-//W3C//DTD SVG 1.1//EN" "http://www.w3.org/Graphics/SVG/1.1/DTD/svg11.dtd"><svg width="100%" height="100%" viewBox="0 0 492 123" version="1.1" xmlns="http://www.w3.org/2000/svg" xmlns:xlink="http://www.w3.org/1999/xlink" xml:space="preserve" xmlns:serif="http://www.serif.com/" style="fill-rule:evenodd;clip-rule:evenodd;stroke-linecap:round;stroke-linejoin:round;stroke-miterlimit:1.5;"><g><path d="M64.963,22.591c4.454,0.752 8.66,2.236 12.49,4.323c1.414,0.77 2.776,1.622 4.08,2.551l5.894,-5.894l9.53,9.53l-5.894,5.894c3.445,4.842 5.845,10.475 6.874,16.57l8.325,0l0,13.478l-8.325,-0c-1.029,6.098 -3.431,11.731 -6.874,16.57l5.894,5.894l-9.53,9.53l-5.894,-5.894c-4.842,3.445 -10.475,5.845 -16.57,6.874l-0,8.325l-13.478,0l0,-8.325c-6.098,-1.029 -11.731,-3.431 -16.57,-6.874l-5.894,5.894l-9.53,-9.53l5.894,-5.894c-3.445,-4.842 -5.845,-10.475 -6.874,-16.57l-8.325,-0l-0,-13.478l8.325,0c1.029,-6.098 3.431,-11.731 6.874,-16.57l-5.894,-5.894l9.53,-9.53l5.894,5.894c4.842,-3.445 10.475,-5.845 16.57,-6.874l0,-8.325l13.478,-0l-0,8.325Z" style="fill:#ff2e63;"/><path d="M63.235,20.863c4.454,0.752 8.66,2.236 12.49,4.323c1.414,0.77 2.776,1.622 4.08,2.551l5.894,-5.894l9.53,9.53l-5.894,5.894c3.445,4.842 5.845,10.475 6.874,16.57l8.325,0l0,13.478l-8.325,-0c-1.029,6.098 -3.431,11.731 -6.874,16.57l5.894,5.894l-9.53,9.53l-5.894,-5.894c-4.842,3.445 -10.475,5.845 -16.57,6.874l-0,8.325l-13.478,0l0,-8.325c-6.098,-1.029 -11.731,-3.431 -16.57,-6.874l-5.894,5.894l-9.53,-9.53l5.894,-5.894c-3.445,-4.842 -5.845,-10.475 -6.874,-16.57l-8.325,-0l-0,-13.478l8.325,0c1.029,-6.098 3.431,-11.731 6.874,-16.57l-5.894,-5.894l9.53,-9.53l5.894,5.894c4.842,-3.445 10.475,-5.845 16.57,-6.874l0,-8.325l13.478,-0l-0,8.325Z" style="fill:#08d9d6;"/><circle cx="56.496" cy="60.576" r="21.928" style="fill:none;stroke:#ff2e63;stroke-width:4.8px;"/></g><g><path d="M321.186,85.53c-0.586,0 -1.074,-0.156 -1.465,-0.469c-0.391,-0.314 -0.586,-0.662 -0.586,-1.046l-0,-32.511c-0,-0.444 0.195,-0.8 0.586,-1.066c0.391,-0.266 0.865,-0.399 1.424,-0.399c0.579,0 1.054,0.133 1.425,0.399c0.37,0.266 0.555,0.622 0.555,1.066l0,2.071c0.573,-0.976 1.437,-1.86 2.592,-2.652c1.155,-0.791 2.555,-1.187 4.198,-1.187c1.677,0 3.202,0.44 4.576,1.318c1.375,0.879 2.467,2.048 3.279,3.506c0.811,1.458 1.217,3.083 1.217,4.875l-0,5.111c-0,1.691 -0.409,3.287 -1.228,4.789c-0.818,1.502 -1.902,2.713 -3.253,3.632c-1.35,0.919 -2.827,1.379 -4.429,1.379c-1.523,0 -2.895,-0.392 -4.117,-1.177c-1.223,-0.784 -2.1,-1.699 -2.633,-2.743l0,13.589c0,0.384 -0.205,0.732 -0.616,1.046c-0.41,0.313 -0.919,0.469 -1.525,0.469Zm-157.553,0c-0.586,0 -1.074,-0.156 -1.465,-0.469c-0.391,-0.314 -0.586,-0.662 -0.586,-1.046l-0,-32.511c-0,-0.444 0.195,-0.8 0.586,-1.066c0.391,-0.266 0.865,-0.399 1.424,-0.399c0.579,0 1.054,0.133 1.425,0.399c0.37,0.266 0.555,0.622 0.555,1.066l0,2.071c0.573,-0.976 1.437,-1.86 2.592,-2.652c1.155,-0.791 2.555,-1.187 4.198,-1.187c1.677,0 3.202,0.44 4.576,1.318c1.375,0.879 2.467,2.048 3.279,3.506c0.811,1.458 1.217,3.083 1.217,4.875l-0,5.111c-0,1.691 -0.409,3.287 -1.228,4.789c-0.818,1.502 -1.902,2.713 -3.253,3.632c-1.35,0.919 -2.827,1.379 -4.429,1.379c-1.523,0 -2.895,-0.392 -4.117,-1.177c-1.223,-0.784 -2.1,-1.699 -2.632,-2.743l-0,13.589c-0,0.384 -0.206,0.732 -0.617,1.046c-0.41,0.313 -0.919,0.469 -1.525,0.469Zm293.758,-11.184c-1.609,0 -3.035,-0.204 -4.278,-0.611c-1.242,-0.407 -2.217,-0.904 -2.925,-1.49c-0.707,-0.586 -1.06,-1.162 -1.06,-1.728c-0,-0.262 0.064,-0.537 0.191,-0.823c0.128,-0.286 0.305,-0.535 0.531,-0.748c0.226,-0.212 0.47,-0.318 0.732,-0.318c0.398,-0 0.83,0.193 1.298,0.581c0.468,0.387 1.113,0.776 1.935,1.167c0.822,0.39 1.977,0.586 3.465,0.586c1.812,-0 3.065,-0.325 3.759,-0.975c0.693,-0.65 1.04,-1.386 1.04,-2.208c-0,-1.016 -0.296,-1.806 -0.889,-2.368c-0.592,-0.563 -1.36,-1.004 -2.303,-1.324c-0.943,-0.32 -1.94,-0.628 -2.99,-0.924c-1.051,-0.297 -2.048,-0.672 -2.991,-1.127c-0.943,-0.454 -1.711,-1.094 -2.304,-1.919c-0.592,-0.825 -0.889,-1.935 -0.889,-3.329c0,-1.105 0.275,-2.199 0.824,-3.284c0.549,-1.084 1.428,-1.983 2.637,-2.697c1.209,-0.714 2.817,-1.071 4.824,-1.071c1.199,0 2.341,0.127 3.425,0.379c1.084,0.253 1.973,0.586 2.667,1c0.693,0.414 1.04,0.864 1.04,1.349c0,0.195 -0.069,0.461 -0.207,0.798c-0.138,0.337 -0.327,0.635 -0.566,0.894c-0.239,0.26 -0.53,0.389 -0.873,0.389c-0.297,0 -0.684,-0.121 -1.162,-0.363c-0.478,-0.243 -1.064,-0.481 -1.758,-0.713c-0.694,-0.232 -1.526,-0.348 -2.495,-0.348c-1.118,-0 -2.014,0.19 -2.688,0.57c-0.673,0.381 -1.162,0.835 -1.465,1.364c-0.303,0.529 -0.454,1.049 -0.454,1.561c-0,0.855 0.296,1.515 0.889,1.98c0.593,0.465 1.364,0.842 2.314,1.131c0.949,0.29 1.949,0.583 3,0.88c1.051,0.296 2.051,0.702 3,1.217c0.95,0.515 1.721,1.226 2.314,2.132c0.593,0.905 0.889,2.119 0.889,3.642c0,2.054 -0.737,3.692 -2.212,4.915c-1.476,1.222 -3.564,1.833 -6.265,1.833Zm-191.001,0c-1.761,0 -3.399,-0.458 -4.916,-1.373c-1.516,-0.915 -2.733,-2.118 -3.651,-3.607c-0.917,-1.49 -1.376,-3.096 -1.376,-4.82l0,-5.111c0,-1.726 0.448,-3.326 1.344,-4.8c0.896,-1.475 2.104,-2.66 3.624,-3.555c1.521,-0.896 3.182,-1.344 4.983,-1.344c1.798,0 3.456,0.44 4.973,1.32c1.517,0.88 2.735,2.048 3.653,3.502c0.917,1.455 1.376,3.081 1.376,4.877l0,5.111c0,1.685 -0.46,3.279 -1.379,4.785c-0.919,1.505 -2.138,2.717 -3.657,3.636c-1.519,0.919 -3.177,1.379 -4.974,1.379Zm85.368,0c-1.76,0 -3.398,-0.458 -4.915,-1.373c-1.517,-0.915 -2.734,-2.118 -3.651,-3.607c-0.918,-1.49 -1.376,-3.096 -1.376,-4.82l-0,-5.111c-0,-1.726 0.447,-3.326 1.343,-4.8c0.896,-1.475 2.104,-2.66 3.625,-3.555c1.52,-0.896 3.181,-1.344 4.983,-1.344c1.798,0 3.455,0.44 4.973,1.32c1.517,0.88 2.734,2.048 3.652,3.502c0.918,1.455 1.377,3.081 1.377,4.877l-0,5.111c-0,1.685 -0.46,3.279 -1.379,4.785c-0.92,1.505 -2.139,2.717 -3.657,3.636c-1.519,0.919 -3.177,1.379 -4.975,1.379Zm48.603,0c-2.189,0 -4.127,-0.411 -5.814,-1.232c-1.687,-0.822 -3.012,-1.965 -3.975,-3.43c-0.963,-1.465 -1.445,-3.178 -1.445,-5.138l0,-5.263c0,-1.724 0.457,-3.312 1.369,-4.763c0.912,-1.452 2.128,-2.612 3.647,-3.481c1.519,-0.868 3.194,-1.303 5.026,-1.303c1.731,0 3.332,0.399 4.804,1.197c1.472,0.798 2.657,1.893 3.556,3.284c0.9,1.391 1.349,2.995 1.349,4.814c0,1.333 -0.219,2.293 -0.656,2.879c-0.438,0.586 -0.995,0.944 -1.672,1.076c-0.677,0.131 -1.393,0.196 -2.148,0.196l-11.082,0l0,1.547c0,1.872 0.674,3.359 2.021,4.46c1.347,1.101 3.067,1.652 5.162,1.652c1.266,-0 2.27,-0.17 3.011,-0.51c0.74,-0.341 1.342,-0.672 1.803,-0.996c0.461,-0.323 0.89,-0.485 1.288,-0.485c0.343,0 0.643,0.111 0.899,0.334c0.256,0.222 0.453,0.481 0.591,0.778c0.138,0.296 0.207,0.565 0.207,0.808c0,0.438 -0.321,0.939 -0.965,1.505c-0.643,0.566 -1.557,1.053 -2.742,1.46c-1.186,0.407 -2.597,0.611 -4.234,0.611Zm-204.834,0c-2.189,0 -4.127,-0.411 -5.814,-1.232c-1.687,-0.822 -3.012,-1.965 -3.975,-3.43c-0.963,-1.465 -1.445,-3.178 -1.445,-5.138l0,-5.263c0,-1.724 0.457,-3.312 1.369,-4.763c0.912,-1.452 2.128,-2.612 3.647,-3.481c1.519,-0.868 3.194,-1.303 5.026,-1.303c1.731,0 3.332,0.399 4.804,1.197c1.472,0.798 2.657,1.893 3.556,3.284c0.9,1.391 1.349,2.995 1.349,4.814c0,1.333 -0.219,2.293 -0.656,2.879c-0.438,0.586 -0.995,0.944 -1.672,1.076c-0.677,0.131 -1.393,0.196 -2.148,0.196l-11.082,0l0,1.547c0,1.872 0.674,3.359 2.021,4.46c1.347,1.101 3.067,1.652 5.161,1.652c1.267,-0 2.271,-0.17 3.012,-0.51c0.74,-0.341 1.342,-0.672 1.803,-0.996c0.461,-0.323 0.89,-0.485 1.288,-0.485c0.343,0 0.643,0.111 0.899,0.334c0.256,0.222 0.453,0.481 0.591,0.778c0.138,0.296 0.207,0.565 0.207,0.808c0,0.438 -0.321,0.939 -0.965,1.505c-0.643,0.566 -1.557,1.053 -2.742,1.46c-1.186,0.407 -2.597,0.611 -4.234,0.611Zm-49.946,-0.08c-2.042,-0 -3.881,-0.362 -5.518,-1.087c-1.636,-0.724 -2.936,-1.889 -3.9,-3.496c-0.963,-1.608 -1.444,-3.751 -1.444,-6.43l-0,-15.204c-0,-2.679 0.481,-4.822 1.444,-6.429c0.964,-1.608 2.262,-2.773 3.897,-3.497c1.634,-0.724 3.473,-1.086 5.516,-1.086c2.043,-0 3.891,0.362 5.544,1.086c1.654,0.724 2.962,1.889 3.925,3.497c0.964,1.607 1.445,3.75 1.445,6.429l0,15.204c0,2.679 -0.481,4.822 -1.445,6.43c-0.963,1.607 -2.27,2.772 -3.923,3.496c-1.652,0.725 -3.499,1.087 -5.541,1.087Zm96.964,-0c-1.946,-0 -3.744,-0.362 -5.394,-1.087c-1.65,-0.724 -2.962,-1.89 -3.935,-3.5c-0.973,-1.61 -1.46,-3.751 -1.46,-6.426l-0,-15.204c-0,-2.674 0.497,-4.816 1.49,-6.426c0.994,-1.609 2.315,-2.776 3.965,-3.5c1.651,-0.724 3.459,-1.086 5.426,-1.086c2.263,-0 4.204,0.39 5.824,1.172c1.62,0.781 2.869,1.832 3.748,3.152c0.879,1.32 1.318,2.805 1.318,4.455c0,0.95 -0.173,1.578 -0.52,1.884c-0.346,0.307 -0.88,0.46 -1.601,0.46c-0.68,0 -1.197,-0.133 -1.551,-0.399c-0.354,-0.266 -0.544,-0.631 -0.571,-1.097c-0.02,-0.498 -0.112,-1.075 -0.278,-1.732c-0.165,-0.657 -0.468,-1.293 -0.909,-1.909c-0.441,-0.616 -1.091,-1.128 -1.949,-1.536c-0.859,-0.407 -1.999,-0.611 -3.42,-0.611c-2.176,-0 -3.841,0.584 -4.996,1.753c-1.155,1.168 -1.733,2.975 -1.733,5.42l0,15.204c0,2.466 0.586,4.277 1.758,5.436c1.172,1.158 2.876,1.737 5.112,1.737c1.414,0 2.532,-0.198 3.354,-0.596c0.822,-0.397 1.438,-0.902 1.849,-1.515c0.411,-0.613 0.697,-1.266 0.859,-1.96c0.161,-0.694 0.279,-1.334 0.353,-1.92c0.048,-0.518 0.253,-0.897 0.617,-1.136c0.363,-0.239 0.858,-0.359 1.484,-0.359c0.735,0 1.276,0.158 1.622,0.475c0.347,0.316 0.52,0.95 0.52,1.899c0,1.657 -0.444,3.166 -1.333,4.526c-0.889,1.361 -2.154,2.439 -3.794,3.233c-1.64,0.795 -3.591,1.193 -5.855,1.193Zm125.235,-0.304c-0.6,0 -1.095,-0.156 -1.485,-0.469c-0.391,-0.313 -0.586,-0.662 -0.586,-1.046l-0,-20.943c-0,-0.444 0.195,-0.8 0.586,-1.066c0.39,-0.266 0.885,-0.399 1.485,-0.399c0.539,0 0.993,0.133 1.364,0.399c0.37,0.266 0.555,0.622 0.555,1.066l0,2.071c0.533,-0.976 1.373,-1.86 2.521,-2.652c1.148,-0.791 2.564,-1.187 4.248,-1.187c1.61,0 3.089,0.44 4.436,1.318c1.347,0.879 2.426,2.048 3.238,3.506c0.811,1.458 1.217,3.083 1.217,4.875l-0,13.012c-0,0.505 -0.221,0.884 -0.662,1.137c-0.441,0.252 -0.928,0.378 -1.46,0.378c-0.485,0 -0.951,-0.126 -1.399,-0.378c-0.448,-0.253 -0.672,-0.632 -0.672,-1.137l-0,-13.012c-0,-1.004 -0.261,-1.954 -0.783,-2.849c-0.522,-0.896 -1.217,-1.63 -2.086,-2.202c-0.869,-0.573 -1.832,-0.859 -2.89,-0.859c-0.902,-0 -1.776,0.237 -2.621,0.712c-0.846,0.475 -1.538,1.147 -2.076,2.016c-0.539,0.868 -0.809,1.929 -0.809,3.182l0,13.012c0,0.384 -0.205,0.733 -0.616,1.046c-0.41,0.313 -0.912,0.469 -1.505,0.469Zm46.776,0c-0.6,0 -1.095,-0.156 -1.485,-0.469c-0.391,-0.313 -0.586,-0.662 -0.586,-1.046l-0,-20.943c-0,-0.444 0.195,-0.8 0.586,-1.066c0.39,-0.266 0.885,-0.399 1.485,-0.399c0.538,0 0.993,0.133 1.364,0.399c0.37,0.266 0.555,0.622 0.555,1.066l0,2.071c0.533,-0.976 1.373,-1.86 2.521,-2.652c1.148,-0.791 2.564,-1.187 4.248,-1.187c1.61,0 3.089,0.44 4.436,1.318c1.347,0.879 2.426,2.048 3.237,3.506c0.812,1.458 1.217,3.083 1.217,4.875l0,13.012c0,0.505 -0.22,0.884 -0.661,1.137c-0.442,0.252 -0.928,0.378 -1.46,0.378c-0.485,0 -0.951,-0.126 -1.399,-0.378c-0.448,-0.253 -0.672,-0.632 -0.672,-1.137l-0,-13.012c-0,-1.004 -0.261,-1.954 -0.783,-2.849c-0.522,-0.896 -1.217,-1.63 -2.086,-2.202c-0.869,-0.573 -1.832,-0.859 -2.89,-0.859c-0.902,-0 -1.776,0.237 -2.621,0.712c-0.846,0.475 -1.538,1.147 -2.077,2.016c-0.538,0.868 -0.808,1.929 -0.808,3.182l0,13.012c0,0.384 -0.205,0.733 -0.616,1.046c-0.41,0.313 -0.912,0.469 -1.505,0.469Zm-132.145,0c-0.599,0 -1.094,-0.156 -1.485,-0.469c-0.391,-0.313 -0.586,-0.662 -0.586,-1.046l0,-20.943c0,-0.444 0.195,-0.8 0.586,-1.066c0.391,-0.266 0.886,-0.399 1.485,-0.399c0.539,0 0.994,0.133 1.364,0.399c0.37,0.266 0.556,0.622 0.556,1.066l-0,2.071c0.572,-0.976 1.419,-1.86 2.541,-2.652c1.121,-0.791 2.517,-1.187 4.187,-1.187c1.604,0 3.013,0.472 4.229,1.415c1.215,0.943 2.116,2.155 2.702,3.637c0.876,-1.718 2.005,-2.989 3.39,-3.814c1.384,-0.825 2.8,-1.238 4.248,-1.238c1.482,0 2.881,0.377 4.198,1.132c1.316,0.754 2.387,1.852 3.212,3.293c0.825,1.441 1.238,3.199 1.238,5.274l0,13.012c0,0.384 -0.205,0.733 -0.616,1.046c-0.411,0.313 -0.913,0.469 -1.506,0.469c-0.559,0 -1.044,-0.156 -1.455,-0.469c-0.411,-0.313 -0.616,-0.662 -0.616,-1.046l-0,-13.012c-0,-1.307 -0.261,-2.398 -0.783,-3.274c-0.522,-0.875 -1.191,-1.537 -2.006,-1.985c-0.814,-0.448 -1.65,-0.672 -2.505,-0.672c-0.903,0 -1.76,0.234 -2.571,0.702c-0.812,0.468 -1.484,1.127 -2.016,1.976c-0.532,0.848 -0.798,1.872 -0.798,3.071l0,13.245c0,0.518 -0.22,0.892 -0.661,1.121c-0.442,0.229 -0.928,0.343 -1.46,0.343c-0.485,0 -0.952,-0.114 -1.4,-0.343c-0.447,-0.229 -0.671,-0.603 -0.671,-1.121l-0,-13.195c-0,-1.145 -0.244,-2.15 -0.733,-3.015c-0.488,-0.866 -1.13,-1.542 -1.924,-2.031c-0.795,-0.488 -1.671,-0.732 -2.627,-0.732c-0.882,-0 -1.739,0.23 -2.571,0.692c-0.832,0.461 -1.511,1.126 -2.036,1.995c-0.526,0.869 -0.788,1.943 -0.788,3.223l-0,13.012c-0,0.384 -0.206,0.733 -0.616,1.046c-0.411,0.313 -0.913,0.469 -1.506,0.469Zm-72.689,0c-0.6,0 -1.095,-0.156 -1.485,-0.469c-0.391,-0.313 -0.586,-0.662 -0.586,-1.046l-0,-20.943c-0,-0.444 0.195,-0.8 0.586,-1.066c0.39,-0.266 0.885,-0.399 1.485,-0.399c0.538,0 0.993,0.133 1.364,0.399c0.37,0.266 0.555,0.622 0.555,1.066l0,2.071c0.533,-0.976 1.373,-1.86 2.521,-2.652c1.148,-0.791 2.564,-1.187 4.248,-1.187c1.61,0 3.089,0.44 4.436,1.318c1.347,0.879 2.426,2.048 3.237,3.506c0.812,1.458 1.217,3.083 1.217,4.875l0,13.012c0,0.505 -0.22,0.884 -0.661,1.137c-0.442,0.252 -0.928,0.378 -1.46,0.378c-0.485,0 -0.951,-0.126 -1.399,-0.378c-0.448,-0.253 -0.672,-0.632 -0.672,-1.137l-0,-13.012c-0,-1.004 -0.261,-1.954 -0.783,-2.849c-0.522,-0.896 -1.217,-1.63 -2.086,-2.202c-0.869,-0.573 -1.832,-0.859 -2.89,-0.859c-0.902,-0 -1.776,0.237 -2.621,0.712c-0.846,0.475 -1.538,1.147 -2.077,2.016c-0.538,0.868 -0.808,1.929 -0.808,3.182l0,13.012c0,0.384 -0.205,0.733 -0.616,1.046c-0.411,0.313 -0.912,0.469 -1.505,0.469Zm235.344,0c-2.714,0 -4.79,-0.606 -6.228,-1.818c-1.438,-1.212 -2.157,-3.149 -2.157,-5.809l-0,-26.015c-0,-0.444 0.224,-0.8 0.672,-1.066c0.448,-0.266 0.914,-0.399 1.399,-0.399c0.532,0 1.018,0.133 1.46,0.399c0.441,0.266 0.661,0.622 0.661,1.066l0,9.719l6.375,0c0.398,0 0.711,0.169 0.94,0.506c0.229,0.336 0.344,0.72 0.344,1.151c-0,0.424 -0.115,0.801 -0.344,1.132c-0.229,0.33 -0.542,0.495 -0.94,0.495l-6.375,-0l0,13.012c0,1.448 0.314,2.467 0.94,3.056c0.626,0.589 1.711,0.884 3.253,0.884l1.566,-0c0.6,-0 1.058,0.183 1.375,0.55c0.316,0.367 0.474,0.794 0.474,1.279c0,0.478 -0.158,0.907 -0.474,1.288c-0.317,0.38 -0.775,0.57 -1.375,0.57l-1.566,0Zm-93.303,-3.405c1.08,0 2.055,-0.285 2.923,-0.856c0.868,-0.571 1.567,-1.318 2.096,-2.243c0.529,-0.924 0.794,-1.895 0.794,-2.912l-0,-5.111c-0,-1.005 -0.259,-1.954 -0.778,-2.85c-0.518,-0.895 -1.216,-1.629 -2.093,-2.201c-0.878,-0.573 -1.856,-0.859 -2.935,-0.859c-1.08,-0 -2.053,0.285 -2.919,0.856c-0.867,0.57 -1.557,1.304 -2.071,2.201c-0.515,0.896 -0.772,1.847 -0.772,2.853l0,5.111c0,1.017 0.257,1.988 0.77,2.912c0.513,0.925 1.209,1.672 2.087,2.243c0.878,0.571 1.844,0.856 2.898,0.856Zm-85.369,0c1.081,0 2.055,-0.285 2.923,-0.856c0.869,-0.571 1.568,-1.318 2.097,-2.243c0.529,-0.924 0.793,-1.895 0.793,-2.912l0,-5.111c0,-1.005 -0.259,-1.954 -0.777,-2.85c-0.519,-0.895 -1.217,-1.629 -2.094,-2.201c-0.877,-0.573 -1.855,-0.859 -2.935,-0.859c-1.079,-0 -2.052,0.285 -2.919,0.856c-0.866,0.57 -1.556,1.304 -2.071,2.201c-0.514,0.896 -0.771,1.847 -0.771,2.853l-0,5.111c-0,1.017 0.256,1.988 0.77,2.912c0.513,0.925 1.209,1.672 2.086,2.243c0.878,0.571 1.844,0.856 2.898,0.856Zm-94.922,0c1.038,0 1.991,-0.286 2.86,-0.858c0.869,-0.573 1.571,-1.324 2.106,-2.253c0.535,-0.929 0.803,-1.896 0.803,-2.9l0,-5.111c0,-1.004 -0.264,-1.954 -0.793,-2.849c-0.528,-0.896 -1.234,-1.63 -2.116,-2.202c-0.883,-0.573 -1.859,-0.859 -2.93,-0.859c-0.93,-0 -1.824,0.237 -2.682,0.712c-0.859,0.475 -1.564,1.147 -2.117,2.016c-0.552,0.868 -0.828,1.929 -0.828,3.182l-0,6.496c-0,0.451 0.245,1.044 0.737,1.778c0.492,0.734 1.17,1.392 2.036,1.975c0.866,0.582 1.84,0.873 2.924,0.873Zm157.553,0c1.038,0 1.991,-0.286 2.86,-0.858c0.869,-0.573 1.571,-1.324 2.106,-2.253c0.535,-0.929 0.803,-1.896 0.803,-2.9l0,-5.111c0,-1.004 -0.264,-1.954 -0.793,-2.849c-0.528,-0.896 -1.234,-1.63 -2.116,-2.202c-0.883,-0.573 -1.859,-0.859 -2.93,-0.859c-0.93,-0 -1.824,0.237 -2.682,0.712c-0.859,0.475 -1.564,1.147 -2.117,2.016c-0.552,0.868 -0.829,1.929 -0.829,3.182l0,6.496c0,0.451 0.246,1.044 0.738,1.778c0.492,0.734 1.17,1.392 2.036,1.975c0.866,0.582 1.84,0.873 2.924,0.873Zm-183.446,-0.131c2.081,0 3.713,-0.58 4.895,-1.742c1.182,-1.162 1.773,-2.972 1.773,-5.431l0,-15.204c0,-2.459 -0.59,-4.269 -1.77,-5.43c-1.181,-1.162 -2.812,-1.743 -4.895,-1.743c-2.083,-0 -3.707,0.581 -4.872,1.743c-1.166,1.161 -1.748,2.971 -1.748,5.43l-0,15.204c-0,2.459 0.583,4.269 1.748,5.431c1.166,1.162 2.789,1.742 4.869,1.742Zm42.907,-10.062l9.325,-0c0.895,-0 1.493,-0.104 1.793,-0.313c0.3,-0.209 0.45,-0.64 0.45,-1.293c-0,-0.997 -0.248,-1.93 -0.743,-2.799c-0.495,-0.869 -1.177,-1.569 -2.046,-2.101c-0.869,-0.532 -1.865,-0.798 -2.99,-0.798c-1.051,-0 -2.016,0.246 -2.895,0.738c-0.878,0.491 -1.58,1.151 -2.106,1.979c-0.525,0.829 -0.788,1.762 -0.788,2.799l0,1.788Zm204.834,-0l9.325,-0c0.895,-0 1.493,-0.104 1.793,-0.313c0.3,-0.209 0.45,-0.64 0.45,-1.293c-0,-0.997 -0.248,-1.93 -0.743,-2.799c-0.495,-0.869 -1.177,-1.569 -2.046,-2.101c-0.869,-0.532 -1.865,-0.798 -2.99,-0.798c-1.051,-0 -2.016,0.246 -2.895,0.738c-0.878,0.491 -1.58,1.151 -2.106,1.979c-0.525,0.829 -0.788,1.762 -0.788,2.799l0,1.788Z" style="fill:none;fill-rule:nonzero;stroke:#fff;stroke-width:9.5px;stroke-linecap:butt;stroke-miterlimit:2;"/><path d="M321.186,85.53c-0.586,0 -1.074,-0.156 -1.465,-0.469c-0.391,-0.314 -0.586,-0.662 -0.586,-1.046l-0,-32.511c-0,-0.444 0.195,-0.8 0.586,-1.066c0.391,-0.266 0.865,-0.399 1.424,-0.399c0.579,0 1.054,0.133 1.425,0.399c0.37,0.266 0.555,0.622 0.555,1.066l0,2.071c0.573,-0.976 1.437,-1.86 2.592,-2.652c1.155,-0.791 2.555,-1.187 4.198,-1.187c1.677,0 3.202,0.44 4.576,1.318c1.375,0.879 2.467,2.048 3.279,3.506c0.811,1.458 1.217,3.083 1.217,4.875l-0,5.111c-0,1.691 -0.409,3.287 -1.228,4.789c-0.818,1.502 -1.902,2.713 -3.253,3.632c-1.35,0.919 -2.827,1.379 -4.429,1.379c-1.523,0 -2.895,-0.392 -4.117,-1.177c-1.223,-0.784 -2.1,-1.699 -2.633,-2.743l0,13.589c0,0.384 -0.205,0.732 -0.616,1.046c-0.41,0.313 -0.919,0.469 -1.525,0.469Zm-157.553,0c-0.586,0 -1.074,-0.156 -1.465,-0.469c-0.391,-0.314 -0.586,-0.662 -0.586,-1.046l-0,-32.511c-0,-0.444 0.195,-0.8 0.586,-1.066c0.391,-0.266 0.865,-0.399 1.424,-0.399c0.579,0 1.054,0.133 1.425,0.399c0.37,0.266 0.555,0.622 0.555,1.066l0,2.071c0.573,-0.976 1.437,-1.86 2.592,-2.652c1.155,-0.791 2.555,-1.187 4.198,-1.187c1.677,0 3.202,0.44 4.576,1.318c1.375,0.879 2.467,2.048 3.279,3.506c0.811,1.458 1.217,3.083 1.217,4.875l-0,5.111c-0,1.691 -0.409,3.287 -1.228,4.789c-0.818,1.502 -1.902,2.713 -3.253,3.632c-1.35,0.919 -2.827,1.379 -4.429,1.379c-1.523,0 -2.895,-0.392 -4.117,-1.177c-1.223,-0.784 -2.1,-1.699 -2.632,-2.743l-0,13.589c-0,0.384 -0.206,0.732 -0.617,1.046c-0.41,0.313 -0.919,0.469 -1.525,0.469Zm293.758,-11.184c-1.609,0 -3.035,-0.204 -4.278,-0.611c-1.242,-0.407 -2.217,-0.904 -2.925,-1.49c-0.707,-0.586 -1.06,-1.162 -1.06,-1.728c-0,-0.262 0.064,-0.537 0.191,-0.823c0.128,-0.286 0.305,-0.535 0.531,-0.748c0.226,-0.212 0.47,-0.318 0.732,-0.318c0.398,-0 0.83,0.193 1.298,0.581c0.468,0.387 1.113,0.776 1.935,1.167c0.822,0.39 1.977,0.586 3.465,0.586c1.812,-0 3.065,-0.325 3.759,-0.975c0.693,-0.65 1.04,-1.386 1.04,-2.208c-0,-1.016 -0.296,-1.806 -0.889,-2.368c-0.592,-0.563 -1.36,-1.004 -2.303,-1.324c-0.943,-0.32 -1.94,-0.628 -2.99,-0.924c-1.051,-0.297 -2.048,-0.672 -2.991,-1.127c-0.943,-0.454 -1.711,-1.094 -2.304,-1.919c-0.592,-0.825 -0.889,-1.935 -0.889,-3.329c0,-1.105 0.275,-2.199 0.824,-3.284c0.549,-1.084 1.428,-1.983 2.637,-2.697c1.209,-0.714 2.817,-1.071 4.824,-1.071c1.199,0 2.341,0.127 3.425,0.379c1.084,0.253 1.973,0.586 2.667,1c0.693,0.414 1.04,0.864 1.04,1.349c0,0.195 -0.069,0.461 -0.207,0.798c-0.138,0.337 -0.327,0.635 -0.566,0.894c-0.239,0.26 -0.53,0.389 -0.873,0.389c-0.297,0 -0.684,-0.121 -1.162,-0.363c-0.478,-0.243 -1.064,-0.481 -1.758,-0.713c-0.694,-0.232 -1.526,-0.348 -2.495,-0.348c-1.118,-0 -2.014,0.19 -2.688,0.57c-0.673,0.381 -1.162,0.835 -1.465,1.364c-0.303,0.529 -0.454,1.049 -0.454,1.561c-0,0.855 0.296,1.515 0.889,1.98c0.593,0.465 1.364,0.842 2.314,1.131c0.949,0.29 1.949,0.583 3,0.88c1.051,0.296 2.051,0.702 3,1.217c0.95,0.515 1.721,1.226 2.314,2.132c0.593,0.905 0.889,2.119 0.889,3.642c0,2.054 -0.737,3.692 -2.212,4.915c-1.476,1.222 -3.564,1.833 -6.265,1.833Zm-191.001,0c-1.761,0 -3.399,-0.458 -4.916,-1.373c-1.516,-0.915 -2.733,-2.118 -3.651,-3.607c-0.917,-1.49 -1.376,-3.096 -1.376,-4.82l0,-5.111c0,-1.726 0.448,-3.326 1.344,-4.8c0.896,-1.475 2.104,-2.66 3.624,-3.555c1.521,-0.896 3.182,-1.344 4.983,-1.344c1.798,0 3.456,0.44 4.973,1.32c1.517,0.88 2.735,2.048 3.653,3.502c0.917,1.455 1.376,3.081 1.376,4.877l0,5.111c0,1.685 -0.46,3.279 -1.379,4.785c-0.919,1.505 -2.138,2.717 -3.657,3.636c-1.519,0.919 -3.177,1.379 -4.974,1.379Zm85.368,0c-1.76,0 -3.398,-0.458 -4.915,-1.373c-1.517,-0.915 -2.734,-2.118 -3.651,-3.607c-0.918,-1.49 -1.376,-3.096 -1.376,-4.82l-0,-5.111c-0,-1.726 0.447,-3.326 1.343,-4.8c0.896,-1.475 2.104,-2.66 3.625,-3.555c1.52,-0.896 3.181,-1.344 4.983,-1.344c1.798,0 3.455,0.44 4.973,1.32c1.517,0.88 2.734,2.048 3.652,3.502c0.918,1.455 1.377,3.081 1.377,4.877l-0,5.111c-0,1.685 -0.46,3.279 -1.379,4.785c-0.92,1.505 -2.139,2.717 -3.657,3.636c-1.519,0.919 -3.177,1.379 -4.975,1.379Zm48.603,0c-2.189,0 -4.127,-0.411 -5.814,-1.232c-1.687,-0.822 -3.012,-1.965 -3.975,-3.43c-0.963,-1.465 -1.445,-3.178 -1.445,-5.138l0,-5.263c0,-1.724 0.457,-3.312 1.369,-4.763c0.912,-1.452 2.128,-2.612 3.647,-3.481c1.519,-0.868 3.194,-1.303 5.026,-1.303c1.731,0 3.332,0.399 4.804,1.197c1.472,0.798 2.657,1.893 3.556,3.284c0.9,1.391 1.349,2.995 1.349,4.814c0,1.333 -0.219,2.293 -0.656,2.879c-0.438,0.586 -0.995,0.944 -1.672,1.076c-0.677,0.131 -1.393,0.196 -2.148,0.196l-11.082,0l0,1.547c0,1.872 0.674,3.359 2.021,4.46c1.347,1.101 3.067,1.652 5.162,1.652c1.266,-0 2.27,-0.17 3.011,-0.51c0.74,-0.341 1.342,-0.672 1.803,-0.996c0.461,-0.323 0.89,-0.485 1.288,-0.485c0.343,0 0.643,0.111 0.899,0.334c0.256,0.222 0.453,0.481 0.591,0.778c0.138,0.296 0.207,0.565 0.207,0.808c0,0.438 -0.321,0.939 -0.965,1.505c-0.643,0.566 -1.557,1.053 -2.742,1.46c-1.186,0.407 -2.597,0.611 -4.234,0.611Zm-204.834,0c-2.189,0 -4.127,-0.411 -5.814,-1.232c-1.687,-0.822 -3.012,-1.965 -3.975,-3.43c-0.963,-1.465 -1.445,-3.178 -1.445,-5.138l0,-5.263c0,-1.724 0.457,-3.312 1.369,-4.763c0.912,-1.452 2.128,-2.612 3.647,-3.481c1.519,-0.868 3.194,-1.303 5.026,-1.303c1.731,0 3.332,0.399 4.804,1.197c1.472,0.798 2.657,1.893 3.556,3.284c0.9,1.391 1.349,2.995 1.349,4.814c0,1.333 -0.219,2.293 -0.656,2.879c-0.438,0.586 -0.995,0.944 -1.672,1.076c-0.677,0.131 -1.393,0.196 -2.148,0.196l-11.082,0l0,1.547c0,1.872 0.674,3.359 2.021,4.46c1.347,1.101 3.067,1.652 5.161,1.652c1.267,-0 2.271,-0.17 3.012,-0.51c0.74,-0.341 1.342,-0.672 1.803,-0.996c0.461,-0.323 0.89,-0.485 1.288,-0.485c0.343,0 0.643,0.111 0.899,0.334c0.256,0.222 0.453,0.481 0.591,0.778c0.138,0.296 0.207,0.565 0.207,0.808c0,0.438 -0.321,0.939 -0.965,1.505c-0.643,0.566 -1.557,1.053 -2.742,1.46c-1.186,0.407 -2.597,0.611 -4.234,0.611Zm-49.946,-0.08c-2.042,-0 -3.881,-0.362 -5.518,-1.087c-1.636,-0.724 -2.936,-1.889 -3.9,-3.496c-0.963,-1.608 -1.444,-3.751 -1.444,-6.43l-0,-15.204c-0,-2.679 0.481,-4.822 1.444,-6.429c0.964,-1.608 2.262,-2.773 3.897,-3.497c1.634,-0.724 3.473,-1.086 5.516,-1.086c2.043,-0 3.891,0.362 5.544,1.086c1.654,0.724 2.962,1.889 3.925,3.497c0.964,1.607 1.445,3.75 1.445,6.429l0,15.204c0,2.679 -0.481,4.822 -1.445,6.43c-0.963,1.607 -2.27,2.772 -3.923,3.496c-1.652,0.725 -3.499,1.087 -5.541,1.087Zm96.964,-0c-1.946,-0 -3.744,-0.362 -5.394,-1.087c-1.65,-0.724 -2.962,-1.89 -3.935,-3.5c-0.973,-1.61 -1.46,-3.751 -1.46,-6.426l-0,-15.204c-0,-2.674 0.497,-4.816 1.49,-6.426c0.994,-1.609 2.315,-2.776 3.965,-3.5c1.651,-0.724 3.459,-1.086 5.426,-1.086c2.263,-0 4.204,0.39 5.824,1.172c1.62,0.781 2.869,1.832 3.748,3.152c0.879,1.32 1.318,2.805 1.318,4.455c0,0.95 -0.173,1.578 -0.52,1.884c-0.346,0.307 -0.88,0.46 -1.601,0.46c-0.68,0 -1.197,-0.133 -1.551,-0.399c-0.354,-0.266 -0.544,-0.631 -0.571,-1.097c-0.02,-0.498 -0.112,-1.075 -0.278,-1.732c-0.165,-0.657 -0.468,-1.293 -0.909,-1.909c-0.441,-0.616 -1.091,-1.128 -1.949,-1.536c-0.859,-0.407 -1.999,-0.611 -3.42,-0.611c-2.176,-0 -3.841,0.584 -4.996,1.753c-1.155,1.168 -1.733,2.975 -1.733,5.42l0,15.204c0,2.466 0.586,4.277 1.758,5.436c1.172,1.158 2.876,1.737 5.112,1.737c1.414,0 2.532,-0.198 3.354,-0.596c0.822,-0.397 1.438,-0.902 1.849,-1.515c0.411,-0.613 0.697,-1.266 0.859,-1.96c0.161,-0.694 0.279,-1.334 0.353,-1.92c0.048,-0.518 0.253,-0.897 0.617,-1.136c0.363,-0.239 0.858,-0.359 1.484,-0.359c0.735,0 1.276,0.158 1.622,0.475c0.347,0.316 0.52,0.95 0.52,1.899c0,1.657 -0.444,3.166 -1.333,4.526c-0.889,1.361 -2.154,2.439 -3.794,3.233c-1.64,0.795 -3.591,1.193 -5.855,1.193Zm125.235,-0.304c-0.6,0 -1.095,-0.156 -1.485,-0.469c-0.391,-0.313 -0.586,-0.662 -0.586,-1.046l-0,-20.943c-0,-0.444 0.195,-0.8 0.586,-1.066c0.39,-0.266 0.885,-0.399 1.485,-0.399c0.539,0 0.993,0.133 1.364,0.399c0.37,0.266 0.555,0.622 0.555,1.066l0,2.071c0.533,-0.976 1.373,-1.86 2.521,-2.652c1.148,-0.791 2.564,-1.187 4.248,-1.187c1.61,0 3.089,0.44 4.436,1.318c1.347,0.879 2.426,2.048 3.238,3.506c0.811,1.458 1.217,3.083 1.217,4.875l-0,13.012c-0,0.505 -0.221,0.884 -0.662,1.137c-0.441,0.252 -0.928,0.378 -1.46,0.378c-0.485,0 -0.951,-0.126 -1.399,-0.378c-0.448,-0.253 -0.672,-0.632 -0.672,-1.137l-0,-13.012c-0,-1.004 -0.261,-1.954 -0.783,-2.849c-0.522,-0.896 -1.217,-1.63 -2.086,-2.202c-0.869,-0.573 -1.832,-0.859 -2.89,-0.859c-0.902,-0 -1.776,0.237 -2.621,0.712c-0.846,0.475 -1.538,1.147 -2.076,2.016c-0.539,0.868 -0.809,1.929 -0.809,3.182l0,13.012c0,0.384 -0.205,0.733 -0.616,1.046c-0.41,0.313 -0.912,0.469 -1.505,0.469Zm46.776,0c-0.6,0 -1.095,-0.156 -1.485,-0.469c-0.391,-0.313 -0.586,-0.662 -0.586,-1.046l-0,-20.943c-0,-0.444 0.195,-0.8 0.586,-1.066c0.39,-0.266 0.885,-0.399 1.485,-0.399c0.538,0 0.993,0.133 1.364,0.399c0.37,0.266 0.555,0.622 0.555,1.066l0,2.071c0.533,-0.976 1.373,-1.86 2.521,-2.652c1.148,-0.791 2.564,-1.187 4.248,-1.187c1.61,0 3.089,0.44 4.436,1.318c1.347,0.879 2.426,2.048 3.237,3.506c0.812,1.458 1.217,3.083 1.217,4.875l0,13.012c0,0.505 -0.22,0.884 -0.661,1.137c-0.442,0.252 -0.928,0.378 -1.46,0.378c-0.485,0 -0.951,-0.126 -1.399,-0.378c-0.448,-0.253 -0.672,-0.632 -0.672,-1.137l-0,-13.012c-0,-1.004 -0.261,-1.954 -0.783,-2.849c-0.522,-0.896 -1.217,-1.63 -2.086,-2.202c-0.869,-0.573 -1.832,-0.859 -2.89,-0.859c-0.902,-0 -1.776,0.237 -2.621,0.712c-0.846,0.475 -1.538,1.147 -2.077,2.016c-0.538,0.868 -0.808,1.929 -0.808,3.182l0,13.012c0,0.384 -0.205,0.733 -0.616,1.046c-0.41,0.313 -0.912,0.469 -1.505,0.469Zm-132.145,0c-0.599,0 -1.094,-0.156 -1.485,-0.469c-0.391,-0.313 -0.586,-0.662 -0.586,-1.046l0,-20.943c0,-0.444 0.195,-0.8 0.586,-1.066c0.391,-0.266 0.886,-0.399 1.485,-0.399c0.539,0 0.994,0.133 1.364,0.399c0.37,0.266 0.556,0.622 0.556,1.066l-0,2.071c0.572,-0.976 1.419,-1.86 2.541,-2.652c1.121,-0.791 2.517,-1.187 4.187,-1.187c1.604,0 3.013,0.472 4.229,1.415c1.215,0.943 2.116,2.155 2.702,3.637c0.876,-1.718 2.005,-2.989 3.39,-3.814c1.384,-0.825 2.8,-1.238 4.248,-1.238c1.482,0 2.881,0.377 4.198,1.132c1.316,0.754 2.387,1.852 3.212,3.293c0.825,1.441 1.238,3.199 1.238,5.274l0,13.012c0,0.384 -0.205,0.733 -0.616,1.046c-0.411,0.313 -0.913,0.469 -1.506,0.469c-0.559,0 -1.044,-0.156 -1.455,-0.469c-0.411,-0.313 -0.616,-0.662 -0.616,-1.046l-0,-13.012c-0,-1.307 -0.261,-2.398 -0.783,-3.274c-0.522,-0.875 -1.191,-1.537 -2.006,-1.985c-0.814,-0.448 -1.65,-0.672 -2.505,-0.672c-0.903,0 -1.76,0.234 -2.571,0.702c-0.812,0.468 -1.484,1.127 -2.016,1.976c-0.532,0.848 -0.798,1.872 -0.798,3.071l0,13.245c0,0.518 -0.22,0.892 -0.661,1.121c-0.442,0.229 -0.928,0.343 -1.46,0.343c-0.485,0 -0.952,-0.114 -1.4,-0.343c-0.447,-0.229 -0.671,-0.603 -0.671,-1.121l-0,-13.195c-0,-1.145 -0.244,-2.15 -0.733,-3.015c-0.488,-0.866 -1.13,-1.542 -1.924,-2.031c-0.795,-0.488 -1.671,-0.732 -2.627,-0.732c-0.882,-0 -1.739,0.23 -2.571,0.692c-0.832,0.461 -1.511,1.126 -2.036,1.995c-0.526,0.869 -0.788,1.943 -0.788,3.223l-0,13.012c-0,0.384 -0.206,0.733 -0.616,1.046c-0.411,0.313 -0.913,0.469 -1.506,0.469Zm-72.689,0c-0.6,0 -1.095,-0.156 -1.485,-0.469c-0.391,-0.313 -0.586,-0.662 -0.586,-1.046l-0,-20.943c-0,-0.444 0.195,-0.8 0.586,-1.066c0.39,-0.266 0.885,-0.399 1.485,-0.399c0.538,0 0.993,0.133 1.364,0.399c0.37,0.266 0.555,0.622 0.555,1.066l0,2.071c0.533,-0.976 1.373,-1.86 2.521,-2.652c1.148,-0.791 2.564,-1.187 4.248,-1.187c1.61,0 3.089,0.44 4.436,1.318c1.347,0.879 2.426,2.048 3.237,3.506c0.812,1.458 1.217,3.083 1.217,4.875l0,13.012c0,0.505 -0.22,0.884 -0.661,1.137c-0.442,0.252 -0.928,0.378 -1.46,0.378c-0.485,0 -0.951,-0.126 -1.399,-0.378c-0.448,-0.253 -0.672,-0.632 -0.672,-1.137l-0,-13.012c-0,-1.004 -0.261,-1.954 -0.783,-2.849c-0.522,-0.896 -1.217,-1.63 -2.086,-2.202c-0.869,-0.573 -1.832,-0.859 -2.89,-0.859c-0.902,-0 -1.776,0.237 -2.621,0.712c-0.846,0.475 -1.538,1.147 -2.077,2.016c-0.538,0.868 -0.808,1.929 -0.808,3.182l0,13.012c0,0.384 -0.205,0.733 -0.616,1.046c-0.411,0.313 -0.912,0.469 -1.505,0.469Zm235.344,0c-2.714,0 -4.79,-0.606 -6.228,-1.818c-1.438,-1.212 -2.157,-3.149 -2.157,-5.809l-0,-26.015c-0,-0.444 0.224,-0.8 0.672,-1.066c0.448,-0.266 0.914,-0.399 1.399,-0.399c0.532,0 1.018,0.133 1.46,0.399c0.441,0.266 0.661,0.622 0.661,1.066l0,9.719l6.375,0c0.398,0 0.711,0.169 0.94,0.506c0.229,0.336 0.344,0.72 0.344,1.151c-0,0.424 -0.115,0.801 -0.344,1.132c-0.229,0.33 -0.542,0.495 -0.94,0.495l-6.375,-0l0,13.012c0,1.448 0.314,2.467 0.94,3.056c0.626,0.589 1.711,0.884 3.253,0.884l1.566,-0c0.6,-0 1.058,0.183 1.375,0.55c0.316,0.367 0.474,0.794 0.474,1.279c0,0.478 -0.158,0.907 -0.474,1.288c-0.317,0.38 -0.775,0.57 -1.375,0.57l-1.566,0Zm-93.303,-3.405c1.08,0 2.055,-0.285 2.923,-0.856c0.868,-0.571 1.567,-1.318 2.096,-2.243c0.529,-0.924 0.794,-1.895 0.794,-2.912l-0,-5.111c-0,-1.005 -0.259,-1.954 -0.778,-2.85c-0.518,-0.895 -1.216,-1.629 -2.093,-2.201c-0.878,-0.573 -1.856,-0.859 -2.935,-0.859c-1.08,-0 -2.053,0.285 -2.919,0.856c-0.867,0.57 -1.557,1.304 -2.071,2.201c-0.515,0.896 -0.772,1.847 -0.772,2.853l0,5.111c0,1.017 0.257,1.988 0.77,2.912c0.513,0.925 1.209,1.672 2.087,2.243c0.878,0.571 1.844,0.856 2.898,0.856Zm-85.369,0c1.081,0 2.055,-0.285 2.923,-0.856c0.869,-0.571 1.568,-1.318 2.097,-2.243c0.529,-0.924 0.793,-1.895 0.793,-2.912l0,-5.111c0,-1.005 -0.259,-1.954 -0.777,-2.85c-0.519,-0.895 -1.217,-1.629 -2.094,-2.201c-0.877,-0.573 -1.855,-0.859 -2.935,-0.859c-1.079,-0 -2.052,0.285 -2.919,0.856c-0.866,0.57 -1.556,1.304 -2.071,2.201c-0.514,0.896 -0.771,1.847 -0.771,2.853l-0,5.111c-0,1.017 0.256,1.988 0.77,2.912c0.513,0.925 1.209,1.672 2.086,2.243c0.878,0.571 1.844,0.856 2.898,0.856Zm-94.922,0c1.038,0 1.991,-0.286 2.86,-0.858c0.869,-0.573 1.571,-1.324 2.106,-2.253c0.535,-0.929 0.803,-1.896 0.803,-2.9l0,-5.111c0,-1.004 -0.264,-1.954 -0.793,-2.849c-0.528,-0.896 -1.234,-1.63 -2.116,-2.202c-0.883,-0.573 -1.859,-0.859 -2.93,-0.859c-0.93,-0 -1.824,0.237 -2.682,0.712c-0.859,0.475 -1.564,1.147 -2.117,2.016c-0.552,0.868 -0.828,1.929 -0.828,3.182l-0,6.496c-0,0.451 0.245,1.044 0.737,1.778c0.492,0.734 1.17,1.392 2.036,1.975c0.866,0.582 1.84,0.873 2.924,0.873Zm157.553,0c1.038,0 1.991,-0.286 2.86,-0.858c0.869,-0.573 1.571,-1.324 2.106,-2.253c0.535,-0.929 0.803,-1.896 0.803,-2.9l0,-5.111c0,-1.004 -0.264,-1.954 -0.793,-2.849c-0.528,-0.896 -1.234,-1.63 -2.116,-2.202c-0.883,-0.573 -1.859,-0.859 -2.93,-0.859c-0.93,-0 -1.824,0.237 -2.682,0.712c-0.859,0.475 -1.564,1.147 -2.117,2.016c-0.552,0.868 -0.829,1.929 -0.829,3.182l0,6.496c0,0.451 0.246,1.044 0.738,1.778c0.492,0.734 1.17,1.392 2.036,1.975c0.866,0.582 1.84,0.873 2.924,0.873Zm-183.446,-0.131c2.081,0 3.713,-0.58 4.895,-1.742c1.182,-1.162 1.773,-2.972 1.773,-5.431l0,-15.204c0,-2.459 -0.59,-4.269 -1.77,-5.43c-1.181,-1.162 -2.812,-1.743 -4.895,-1.743c-2.083,-0 -3.707,0.581 -4.872,1.743c-1.166,1.161 -1.748,2.971 -1.748,5.43l-0,15.204c-0,2.459 0.583,4.269 1.748,5.431c1.166,1.162 2.789,1.742 4.869,1.742Zm42.907,-10.062l9.325,-0c0.895,-0 1.493,-0.104 1.793,-0.313c0.3,-0.209 0.45,-0.64 0.45,-1.293c-0,-0.997 -0.248,-1.93 -0.743,-2.799c-0.495,-0.869 -1.177,-1.569 -2.046,-2.101c-0.869,-0.532 -1.865,-0.798 -2.99,-0.798c-1.051,-0 -2.016,0.246 -2.895,0.738c-0.878,0.491 -1.58,1.151 -2.106,1.979c-0.525,0.829 -0.788,1.762 -0.788,2.799l0,1.788Zm204.834,-0l9.325,-0c0.895,-0 1.493,-0.104 1.793,-0.313c0.3,-0.209 0.45,-0.64 0.45,-1.293c-0,-0.997 -0.248,-1.93 -0.743,-2.799c-0.495,-0.869 -1.177,-1.569 -2.046,-2.101c-0.869,-0.532 -1.865,-0.798 -2.99,-0.798c-1.051,-0 -2.016,0.246 -2.895,0.738c-0.878,0.491 -1.58,1.151 -2.106,1.979c-0.525,0.829 -0.788,1.762 -0.788,2.799l0,1.788Z" style="fill-rule:nonzero;"/></g></svg>