<?xml version="1.0" encoding="UTF-8" standalone="no"?><!DOCTYPE svg PUBLIC "-//W3C//DTD SVG 1.1//EN" "http://www.w3.org/Graphics/SVG/1.1/DTD/svg11.dtd"><svg width="100%" height="100%" viewBox="0 0 492 492" version="1.1" xmlns="http://www.w3.org/2000/svg" xmlns:xlink="http://www.w3.org/1999/xlink" xml:space="preserve" xmlns:serif="http://www.serif.com/" style="fill-rule:evenodd;clip-rule:evenodd;stroke-linejoin:round;stroke-miterlimit:2;"><g><path d="M102.741,179.894c-3.381,-33.07 5.284,-66.369 24.152,-93.55c11.831,-17.045 27.675,-31.685 47.075,-42.353c61.431,-33.78 155.14,-19.667 195.895,35.006c2.932,3.895 4.029,8.871 3.006,13.638c-1.023,4.767 -4.065,8.855 -8.337,11.204c0.008,0.015 0.008,0.015 0.008,0.015c-7.083,3.895 -14.179,0.186 -18.999,-6.304c-30.94,-42.09 -108.64,-50.448 -155.648,-24.599c-39.415,21.673 -59.56,64.858 -53.869,106.943l254.911,0c15.626,0 28.312,12.687 28.312,28.313l0,228.358c0,15.626 -12.686,28.312 -28.312,28.312l-302.559,0c-15.627,0 -28.313,-12.686 -28.313,-28.312l-0,-228.358c-0,-15.626 12.686,-28.313 28.313,-28.313l14.365,0Z" style="fill:#ff2e63;"/><path d="M125.59,179.7c-5.501,-53.808 20.89,-107.513 71.227,-135.193c61.431,-33.78 137.381,-16.115 178.136,38.557c2.932,3.896 4.029,8.872 3.006,13.639c-1.023,4.766 -4.065,8.854 -8.337,11.204c0.009,0.015 0.008,0.015 0.008,0.015c-7.083,3.895 -15.955,1.961 -20.775,-4.529c-3.431,-4.667 -7.196,-8.985 -11.244,-12.939c-32.459,-31.7 -83.074,-39.97 -124.869,-16.987c-39.414,21.673 -59.56,64.147 -53.869,106.233l254.911,-0c15.626,-0 28.313,13.397 28.313,29.023l-0,228.358c-0,15.626 -12.687,28.312 -28.313,28.312l-302.559,0c-15.626,0 -28.313,-12.686 -28.313,-28.312l0,-228.358c0,-15.626 12.687,-29.023 28.313,-29.023l14.365,-0Z" style="fill:#08d9d6;"/><path d="M262.504,262.866c52.067,-34.251 86.013,-13.881 89.976,22.973c3.961,36.828 -22.018,90.116 -89.771,121.804l0,0.191l-0.205,-0.095l-0.205,0.095l0,-0.191c-67.752,-31.688 -93.732,-84.976 -89.771,-121.804c3.964,-36.854 37.91,-57.224 89.976,-22.973Z" style="fill:#fff;"/></g></svg>